<?xml version="1.0" encoding="utf-8"?>
<!-- Generator: Adobe Illustrator 27.3.1, SVG Export Plug-In . SVG Version: 6.00 Build 0)  -->
<svg version="1.1" id="Layer_1" xmlns="http://www.w3.org/2000/svg" xmlns:xlink="http://www.w3.org/1999/xlink" x="0px" y="0px"
	 viewBox="0 0 32 32" style="enable-background:new 0 0 32 32;" xml:space="preserve">
<style type="text/css">
	.st0{fill:#1D9E75;}
	.st1{enable-background:new    ;}
	.st2{fill:#FFFFFF;}
	.st3{opacity:0.12;fill:#FFFFFF;enable-background:new    ;}
	.st4{opacity:0.22;fill:#FFFFFF;enable-background:new    ;}
	.st5{opacity:0.55;enable-background:new    ;}
	.st6{opacity:0.4;enable-background:new    ;}
</style>
<g>
	<path class="st0" d="M7.9,0h16c4.4,0,8,3.6,8,8v16c0,4.4-3.6,8-8,8h-16c-4.4,0-8-3.6-8-8V8C-0.1,3.6,3.5,0,7.9,0z"/>
	<g class="st1">
		<path class="st2" d="M9.6,27.9c-0.4-0.3-0.5-0.8-0.5-1.5V9.6c-0.8,0-1.4,0.1-1.9,0.2c-0.5,0.1-1,0.2-1.3,0.3
			c-0.4,0.1-0.7,0.2-0.9,0.3c-0.2,0.1-0.4,0.2-0.5,0.3c-0.1,0.1-0.2,0.2-0.3,0.2C4,10.9,4,10.9,3.9,10.9c-0.1,0-0.2,0-0.3-0.1
			c-0.1-0.1-0.1-0.2-0.2-0.3c-0.1-0.1-0.1-0.2-0.1-0.4c0-0.1,0-0.2,0-0.3c0-0.1,0-0.2,0-0.4c0-0.1,0.1-0.2,0.1-0.3
			C3.4,9,3.5,8.9,3.6,8.8C3.7,8.8,3.9,8.7,4,8.6c0.2,0,0.5-0.1,0.9-0.1c0.4,0,0.9-0.1,1.4-0.1c0.6,0,1.2,0,1.9-0.1
			c0.7,0,1.4,0,2.1,0c1.5,0,2.9,0.1,4.2,0.4S17,9.3,18,9.8c1,0.5,1.8,1.1,2.3,1.9c0.6,0.8,0.9,1.6,0.9,2.7c0,0.4-0.1,0.8-0.2,1.1
			c-0.1,0.3-0.3,0.6-0.5,0.9c-0.2,0.3-0.5,0.5-0.9,0.6c-0.3,0.1-0.7,0.2-1.1,0.2c-0.3,0-0.5,0-0.8-0.1c-0.3-0.1-0.5-0.2-0.7-0.4
			c-0.2-0.2-0.4-0.4-0.5-0.6c-0.1-0.3-0.2-0.6-0.2-0.9c0-0.2,0-0.5,0.1-0.6c0.1-0.2,0.2-0.3,0.3-0.4c0.1-0.1,0.2-0.2,0.3-0.2
			s0.2-0.1,0.3-0.1c0.1,0,0.2,0,0.3,0.1c0.1,0.1,0.2,0.2,0.3,0.2c0.1,0.1,0.2,0.2,0.4,0.2c0.1,0.1,0.3,0.1,0.5,0.1c0,0,0.1,0,0.2,0
			c0.1,0,0.2-0.1,0.3-0.2c0.1-0.1,0.2-0.2,0.3-0.4c0.1-0.2,0.1-0.4,0.1-0.7c0-0.4-0.1-0.8-0.3-1.1c-0.2-0.3-0.5-0.6-0.9-0.9
			c-0.4-0.3-0.8-0.5-1.2-0.7c-0.5-0.2-0.9-0.4-1.4-0.5c-0.5-0.1-0.9-0.2-1.3-0.3c-0.4-0.1-0.8-0.1-1.1-0.2v16.8
			c0,0.7-0.2,1.2-0.5,1.5c-0.4,0.3-0.9,0.5-1.6,0.5C10.5,28.3,10,28.2,9.6,27.9z"/>
	</g>
	<circle class="st3" cx="23.1" cy="9.6" r="6.4"/>
	<circle class="st4" cx="23.1" cy="9.6" r="4"/>
	<circle class="st2" cx="23.1" cy="9.6" r="2"/>
	<g class="st5">
		<path class="st2" d="M23.1,2.9c-0.1,0-0.1,0-0.1-0.1v-2c0-0.1,0-0.1,0.1-0.1c0.1,0,0.1,0,0.1,0.1v2C23.3,2.9,23.2,2.9,23.1,2.9z"
			/>
	</g>
	<g class="st5">
		<path class="st2" d="M23.1,18.5c-0.1,0-0.1,0-0.1-0.1v-2c0-0.1,0-0.1,0.1-0.1c0.1,0,0.1,0,0.1,0.1v2
			C23.3,18.5,23.2,18.5,23.1,18.5z"/>
	</g>
	<g class="st5">
		<path class="st2" d="M16.4,9.7h-2c-0.1,0-0.1,0-0.1-0.1s0-0.1,0.1-0.1h2c0.1,0,0.1,0,0.1,0.1S16.4,9.7,16.4,9.7z"/>
	</g>
	<g class="st5">
		<path class="st2" d="M31.9,9.7h-2c-0.1,0-0.1,0-0.1-0.1s0-0.1,0.1-0.1h2c0.1,0,0.1,0,0.1,0.1S32,9.7,31.9,9.7z"/>
	</g>
	<g class="st6">
		<path class="st2" d="M18.2,4.7C18.2,4.7,18.1,4.7,18.2,4.7l-1.5-1.5c0,0,0-0.1,0-0.1s0.1,0,0.1,0l1.4,1.4
			C18.3,4.6,18.3,4.7,18.2,4.7C18.2,4.7,18.2,4.7,18.2,4.7z"/>
	</g>
	<g class="st6">
		<path class="st2" d="M29.5,16.1C29.5,16.1,29.5,16.1,29.5,16.1L28,14.6c0,0,0-0.1,0-0.1c0,0,0.1,0,0.1,0l1.4,1.4
			C29.7,16,29.7,16,29.5,16.1C29.6,16.1,29.6,16.1,29.5,16.1z"/>
	</g>
	<g class="st6">
		<path class="st2" d="M28.1,4.7C28.1,4.7,28.1,4.7,28.1,4.7C28,4.7,28,4.6,28,4.6l1.4-1.4c0,0,0.1,0,0.1,0s0,0.1,0,0.1L28.1,4.7
			C28.2,4.7,28.1,4.7,28.1,4.7z"/>
	</g>
	<g class="st6">
		<path class="st2" d="M16.7,16.1C16.7,16.1,16.7,16.1,16.7,16.1c-0.1-0.1-0.1-0.1-0.1-0.2l1.4-1.4c0,0,0.1,0,0.1,0c0,0,0,0.1,0,0.1
			L16.7,16.1C16.8,16.1,16.8,16.1,16.7,16.1z"/>
	</g>
</g>
</svg>
