<?xml version="1.0" encoding="utf-8"?>
<!-- Generator: Adobe Illustrator 27.3.1, SVG Export Plug-In . SVG Version: 6.00 Build 0)  -->
<svg version="1.1" id="Layer_1" xmlns="http://www.w3.org/2000/svg" xmlns:xlink="http://www.w3.org/1999/xlink" x="0px" y="0px"
	 viewBox="0 0 40 40" style="enable-background:new 0 0 40 40;" xml:space="preserve">
<style type="text/css">
	.st0{fill:#1D9E75;}
	.st1{enable-background:new    ;}
	.st2{fill:#FFFFFF;}
	.st3{opacity:0.12;fill:#FFFFFF;enable-background:new    ;}
	.st4{opacity:0.22;fill:#FFFFFF;enable-background:new    ;}
	.st5{opacity:0.55;enable-background:new    ;}
	.st6{opacity:0.4;enable-background:new    ;}
</style>
<g>
	<path class="st0" d="M9.9,0h20c5.5,0,10,4.5,10,10v20c0,5.5-4.5,10-10,10h-20c-5.5,0-10-4.5-10-10V10C-0.1,4.5,4.4,0,9.9,0z"/>
	<g class="st1">
		<path class="st2" d="M12.1,34.8c-0.4-0.4-0.7-1-0.7-1.8V12c-0.9,0-1.8,0.1-2.4,0.2c-0.7,0.1-1.2,0.2-1.7,0.3
			c-0.5,0.1-0.8,0.3-1.1,0.4c-0.3,0.1-0.5,0.3-0.7,0.4c-0.2,0.1-0.3,0.2-0.4,0.3c-0.1,0.1-0.2,0.1-0.3,0.1c-0.1,0-0.3,0-0.4-0.1
			c-0.1-0.1-0.2-0.2-0.2-0.4c-0.1-0.1-0.1-0.3-0.1-0.5c0-0.2,0-0.3,0-0.4c0-0.2,0-0.3,0-0.5c0-0.1,0.1-0.3,0.1-0.4
			c0.1-0.1,0.2-0.3,0.3-0.4c0.1-0.1,0.3-0.2,0.5-0.2c0.2-0.1,0.6-0.1,1.1-0.1c0.5,0,1.1-0.1,1.8-0.1c0.7,0,1.5-0.1,2.3-0.1
			c0.8,0,1.7,0,2.6,0c1.9,0,3.6,0.1,5.3,0.4s3.1,0.8,4.3,1.4c1.2,0.6,2.2,1.4,2.9,2.3c0.7,0.9,1.1,2.1,1.1,3.3
			c0,0.5-0.1,0.9-0.2,1.4c-0.2,0.4-0.4,0.8-0.7,1.1c-0.3,0.3-0.7,0.6-1.1,0.8c-0.4,0.2-0.9,0.3-1.4,0.3c-0.3,0-0.7-0.1-1-0.2
			s-0.7-0.3-0.9-0.5c-0.3-0.2-0.5-0.5-0.7-0.8c-0.2-0.3-0.3-0.7-0.3-1.1c0-0.3,0-0.6,0.1-0.8c0.1-0.2,0.2-0.4,0.3-0.5
			s0.3-0.2,0.4-0.3c0.1-0.1,0.3-0.1,0.4-0.1c0.2,0,0.3,0,0.4,0.1c0.1,0.1,0.3,0.2,0.4,0.3c0.1,0.1,0.3,0.2,0.5,0.3
			c0.2,0.1,0.4,0.1,0.7,0.1c0.1,0,0.1,0,0.3,0c0.1,0,0.3-0.1,0.4-0.2s0.2-0.3,0.3-0.5c0.1-0.2,0.1-0.5,0.1-0.8
			c0-0.5-0.1-0.9-0.4-1.4c-0.3-0.4-0.7-0.8-1.1-1.1c-0.5-0.3-1-0.6-1.5-0.9c-0.6-0.2-1.1-0.5-1.7-0.6c-0.6-0.2-1.1-0.3-1.6-0.4
			c-0.5-0.1-1-0.2-1.3-0.2v21c0,0.8-0.2,1.5-0.7,1.8c-0.4,0.4-1.1,0.6-2,0.6C13.2,35.4,12.5,35.2,12.1,34.8z"/>
	</g>
	<circle class="st3" cx="28.9" cy="12" r="8"/>
	<circle class="st4" cx="28.9" cy="12" r="5"/>
	<circle class="st2" cx="28.9" cy="12" r="2.5"/>
	<g class="st5">
		<path class="st2" d="M28.9,3.6c-0.1,0-0.1-0.1-0.1-0.1V1c0-0.1,0.1-0.1,0.1-0.1c0.1,0,0.1,0.1,0.1,0.1v2.5
			C29.1,3.6,29,3.6,28.9,3.6z"/>
	</g>
	<g class="st5">
		<path class="st2" d="M28.9,23.1c-0.1,0-0.1-0.1-0.1-0.1v-2.5c0-0.1,0.1-0.1,0.1-0.1c0.1,0,0.1,0.1,0.1,0.1V23
			C29.1,23.1,29,23.1,28.9,23.1z"/>
	</g>
	<g class="st5">
		<path class="st2" d="M20.4,12.1h-2.5c-0.1,0-0.1-0.1-0.1-0.1c0-0.1,0.1-0.1,0.1-0.1h2.5c0.1,0,0.1,0.1,0.1,0.1
			C20.6,12.1,20.5,12.1,20.4,12.1z"/>
	</g>
	<g class="st5">
		<path class="st2" d="M39.9,12.1h-2.5c-0.1,0-0.1-0.1-0.1-0.1c0-0.1,0.1-0.1,0.1-0.1h2.5c0.1,0,0.1,0.1,0.1,0.1
			C40.1,12.1,40,12.1,39.9,12.1z"/>
	</g>
	<g class="st6">
		<path class="st2" d="M22.7,5.9C22.7,5.9,22.7,5.9,22.7,5.9l-1.9-1.8c0,0,0-0.1,0-0.2c0,0,0.1,0,0.2,0l1.8,1.8
			C22.9,5.8,22.9,5.8,22.7,5.9C22.8,5.9,22.8,5.9,22.7,5.9z"/>
	</g>
	<g class="st6">
		<path class="st2" d="M36.9,20.1C36.9,20.1,36.9,20.1,36.9,20.1L35,18.3c0,0,0-0.1,0-0.2s0.1,0,0.2,0l1.8,1.8
			C37.1,20,37.1,20,36.9,20.1C37,20.1,37,20.1,36.9,20.1z"/>
	</g>
	<g class="st6">
		<path class="st2" d="M35.1,5.9C35.1,5.9,35.1,5.9,35.1,5.9C35,5.8,35,5.8,35,5.7l1.8-1.8c0,0,0.1,0,0.2,0c0,0,0,0.1,0,0.2
			L35.1,5.9C35.2,5.9,35.2,5.9,35.1,5.9z"/>
	</g>
	<g class="st6">
		<path class="st2" d="M20.9,20.1C20.9,20.1,20.9,20.1,20.9,20.1c-0.1-0.1-0.1-0.2-0.1-0.2l1.8-1.8c0,0,0.1,0,0.2,0s0,0.1,0,0.2
			L20.9,20.1C21,20.1,21,20.1,20.9,20.1z"/>
	</g>
</g>
</svg>
