<?xml version="1.0" encoding="utf-8"?>
<!-- Generator: Adobe Illustrator 27.3.1, SVG Export Plug-In . SVG Version: 6.00 Build 0)  -->
<svg version="1.1" id="Layer_1" xmlns="http://www.w3.org/2000/svg" xmlns:xlink="http://www.w3.org/1999/xlink" x="0px" y="0px"
	 viewBox="0 0 180 44" style="enable-background:new 0 0 180 44;" xml:space="preserve">
<style type="text/css">
	.st0{enable-background:new    ;}
	.st1{fill:#1A1A1A;}
	.st2{fill:#1D9E75;}
	.st3{fill:#FFFFFF;}
	.st4{opacity:0.12;fill:#FFFFFF;enable-background:new    ;}
	.st5{opacity:0.22;fill:#FFFFFF;enable-background:new    ;}
	.st6{opacity:0.55;enable-background:new    ;}
	.st7{opacity:0.4;enable-background:new    ;}
</style>
<g class="st0">
	<path class="st1" d="M58,17.5v2.8h-2.4v5.4c0,1.1,0,1.7,0.1,1.9c0,0.2,0.2,0.3,0.3,0.5s0.4,0.2,0.6,0.2c0.3,0,0.8-0.1,1.4-0.3
		l0.3,2.8c-0.8,0.4-1.8,0.5-2.8,0.5c-0.6,0-1.2-0.1-1.7-0.3c-0.5-0.2-0.9-0.5-1.1-0.8c-0.2-0.3-0.4-0.8-0.5-1.4
		c-0.1-0.4-0.1-1.3-0.1-2.5v-5.9h-1.6v-2.8H52v-2.7l3.6-2.1v4.8H58V17.5z"/>
	<path class="st1" d="M66.9,26.7l3.6,0.6c-0.5,1.3-1.2,2.3-2.2,3s-2.2,1-3.7,1c-2.3,0-4.1-0.8-5.2-2.3c-0.9-1.2-1.3-2.8-1.3-4.6
		c0-2.2,0.6-4,1.8-5.2c1.2-1.3,2.6-1.9,4.4-1.9c2,0,3.6,0.7,4.7,2c1.2,1.3,1.7,3.4,1.7,6.1h-8.9c0,1.1,0.3,1.9,0.9,2.5
		c0.6,0.6,1.2,0.9,2.1,0.9c0.6,0,1-0.2,1.4-0.5S66.7,27.4,66.9,26.7z M67.1,23.1c0-1-0.3-1.8-0.8-2.4c-0.5-0.5-1.1-0.8-1.9-0.8
		c-0.8,0-1.4,0.3-1.9,0.9s-0.8,1.3-0.7,2.3H67.1z"/>
	<path class="st1" d="M70.3,31l4.9-6.9l-4.7-6.5h4.4l2.4,3.7l2.5-3.7H84L79.4,24l5,7.1H80l-2.7-4.2L74.5,31H70.3z"/>
	<path class="st1" d="M91.6,17.5v2.8h-2.4v5.4c0,1.1,0,1.7,0.1,1.9c0,0.2,0.2,0.3,0.3,0.5s0.4,0.2,0.6,0.2c0.3,0,0.8-0.1,1.4-0.3
		l0.3,2.8c-0.8,0.4-1.8,0.5-2.8,0.5c-0.6,0-1.2-0.1-1.7-0.3c-0.5-0.2-0.9-0.5-1.1-0.8s-0.4-0.8-0.5-1.4c-0.1-0.4-0.1-1.3-0.1-2.5
		v-5.9H84v-2.8h1.6v-2.7l3.6-2.1v4.8h2.4V17.5z"/>
	<path class="st1" d="M92.6,31V12.4h3.6V31H92.6z"/>
	<path class="st1" d="M96.7,17.5h3.8l3.2,9.6l3.1-9.6h3.7l-4.8,13l-0.9,2.3c-0.3,0.8-0.6,1.4-0.9,1.8c-0.3,0.4-0.6,0.8-1,1
		c-0.4,0.3-0.8,0.5-1.4,0.6c-0.5,0.1-1.1,0.2-1.8,0.2c-0.7,0-1.4-0.1-2-0.2l-0.3-2.8c0.6,0.1,1.1,0.2,1.5,0.2c0.8,0,1.4-0.2,1.8-0.7
		s0.7-1.1,0.9-1.9L96.7,17.5z"/>
</g>
<g class="st0">
	<path class="st2" d="M110.7,17.5h3.3v2c0.4-0.7,1-1.2,1.8-1.7s1.6-0.6,2.5-0.6c1.6,0,2.9,0.6,4,1.8s1.6,2.9,1.6,5.1
		c0,2.3-0.5,4-1.7,5.2c-1.1,1.2-2.4,1.9-4,1.9c-0.7,0-1.4-0.1-2-0.4s-1.2-0.8-1.9-1.5v6.8h-3.6C110.7,36.1,110.7,17.5,110.7,17.5z
		 M114.2,24c0,1.5,0.3,2.6,0.9,3.4c0.6,0.7,1.3,1.1,2.2,1.1c0.8,0,1.5-0.3,2.1-1s0.8-1.8,0.8-3.3c0-1.4-0.3-2.5-0.9-3.1
		c-0.6-0.7-1.3-1-2.1-1c-0.9,0-1.6,0.3-2.2,1C114.5,21.7,114.2,22.7,114.2,24z"/>
	<path class="st2" d="M124.4,24.1c0-1.2,0.3-2.3,0.9-3.4s1.4-2,2.5-2.5c1.1-0.6,2.3-0.9,3.6-0.9c2,0,3.7,0.7,5,2s2,3,2,5
		s-0.7,3.7-2,5.1c-1.3,1.3-3,2-5,2c-1.2,0-2.4-0.3-3.5-0.8c-1.1-0.6-2-1.4-2.6-2.5C124.7,26.9,124.4,25.6,124.4,24.1z M128,24.3
		c0,1.3,0.3,2.4,1,3.1s1.4,1.1,2.3,1.1c0.9,0,1.7-0.4,2.3-1.1s0.9-1.7,0.9-3.1c0-1.3-0.3-2.3-0.9-3c-0.6-0.7-1.4-1.1-2.3-1.1
		c-0.9,0-1.7,0.4-2.3,1.1S128,22.9,128,24.3z"/>
	<path class="st2" d="M138.8,17.5h3.3v2c0.4-0.7,1-1.2,1.8-1.7s1.6-0.6,2.5-0.6c1.6,0,2.9,0.6,4,1.8s1.6,2.9,1.6,5.1
		c0,2.3-0.6,4-1.7,5.2c-1.1,1.2-2.4,1.9-4,1.9c-0.7,0-1.4-0.1-2-0.4s-1.2-0.8-1.9-1.5v6.8h-3.6L138.8,17.5L138.8,17.5z M142.4,24
		c0,1.5,0.3,2.6,0.9,3.4c0.6,0.7,1.3,1.1,2.2,1.1c0.8,0,1.5-0.3,2.1-1c0.5-0.7,0.8-1.8,0.8-3.3c0-1.4-0.3-2.5-0.9-3.1
		c-0.6-0.7-1.3-1-2.1-1c-0.9,0-1.6,0.3-2.2,1C142.6,21.7,142.4,22.7,142.4,24z"/>
</g>
<g>
	<path class="st2" d="M10,2.1h19.9c5.5,0,10,4.5,10,10V32c0,5.5-4.5,10-10,10H10c-5.5,0-10-4.5-10-10V12C0,6.5,4.5,2.1,10,2.1z"/>
	<g class="st0">
		<path class="st3" d="M12.1,36.8c-0.4-0.4-0.7-1-0.7-1.8V14c-0.9,0-1.7,0.1-2.4,0.2c-0.7,0.1-1.2,0.2-1.7,0.3
			c-0.5,0.1-0.8,0.3-1.1,0.4c-0.3,0.1-0.5,0.3-0.7,0.4s-0.3,0.2-0.4,0.3c-0.1,0.1-0.2,0.1-0.3,0.1c-0.1,0-0.3,0-0.4-0.1
			c-0.1-0.1-0.2-0.2-0.2-0.4c-0.1-0.1-0.1-0.3-0.1-0.5c0-0.2,0-0.3,0-0.4c0-0.2,0-0.3,0-0.5c0-0.1,0.1-0.3,0.1-0.4
			c0.1-0.1,0.2-0.2,0.3-0.4c0.1-0.1,0.3-0.2,0.5-0.2c0.2-0.1,0.6-0.1,1.1-0.1c0.5,0,1.1-0.1,1.8-0.1c0.7,0,1.5-0.1,2.3-0.1
			c0.8,0,1.7,0,2.6,0c1.9,0,3.6,0.1,5.2,0.4c1.6,0.3,3.1,0.8,4.3,1.4c1.2,0.6,2.2,1.4,2.9,2.3c0.7,0.9,1.1,2,1.1,3.3
			c0,0.5-0.1,0.9-0.2,1.4c-0.2,0.4-0.4,0.8-0.7,1.1c-0.3,0.3-0.7,0.6-1.1,0.7c-0.4,0.2-0.9,0.3-1.4,0.3c-0.3,0-0.7-0.1-1-0.2
			c-0.3-0.1-0.7-0.3-0.9-0.5c-0.3-0.2-0.5-0.5-0.7-0.8c-0.2-0.3-0.3-0.7-0.3-1.1c0-0.3,0-0.6,0.1-0.8c0.1-0.2,0.2-0.4,0.3-0.5
			c0.1-0.1,0.3-0.2,0.4-0.3c0.1-0.1,0.3-0.1,0.4-0.1c0.2,0,0.3,0,0.4,0.1c0.1,0.1,0.3,0.2,0.4,0.3c0.1,0.1,0.3,0.2,0.5,0.3
			c0.2,0.1,0.4,0.1,0.7,0.1c0.1,0,0.1,0,0.3,0c0.1,0,0.2-0.1,0.4-0.2c0.1-0.1,0.2-0.3,0.3-0.5c0.1-0.2,0.1-0.5,0.1-0.8
			c0-0.5-0.1-0.9-0.4-1.3s-0.7-0.8-1.1-1.1c-0.4-0.3-1-0.6-1.5-0.9c-0.6-0.2-1.1-0.5-1.7-0.6s-1.1-0.3-1.6-0.4
			c-0.5-0.1-1-0.2-1.3-0.2v20.9c0,0.8-0.2,1.5-0.7,1.8c-0.4,0.4-1.1,0.6-2,0.6C13.2,37.3,12.5,37.1,12.1,36.8z"/>
	</g>
	<circle class="st4" cx="28.9" cy="14" r="8"/>
	<circle class="st5" cx="28.9" cy="14" r="5"/>
	<circle class="st3" cx="28.9" cy="14" r="2.5"/>
	<g class="st6">
		<path class="st3" d="M28.9,5.7c-0.1,0-0.1-0.1-0.1-0.1V3.1c0-0.1,0.1-0.1,0.1-0.1S29,3,29,3.1v2.5C29,5.6,29,5.7,28.9,5.7z"/>
	</g>
	<g class="st6">
		<path class="st3" d="M28.9,25.1c-0.1,0-0.1-0.1-0.1-0.1v-2.5c0-0.1,0.1-0.1,0.1-0.1s0.1,0.1,0.1,0.1V25C29,25.1,29,25.1,28.9,25.1
			z"/>
	</g>
	<g class="st6">
		<path class="st3" d="M20.4,14.2h-2.5c-0.1,0-0.1-0.1-0.1-0.1s0.1-0.1,0.1-0.1h2.5c0.1,0,0.1,0.1,0.1,0.1S20.5,14.2,20.4,14.2z"/>
	</g>
	<g class="st6">
		<path class="st3" d="M39.9,14.2h-2.5c-0.1,0-0.1-0.1-0.1-0.1s0.1-0.1,0.1-0.1h2.5c0.1,0,0.1,0.1,0.1,0.1S39.9,14.2,39.9,14.2z"/>
	</g>
	<g class="st7">
		<path class="st3" d="M22.7,8C22.7,8,22.7,8,22.7,8l-1.9-1.8c0,0,0-0.1,0-0.2s0.1,0,0.2,0l1.8,1.8C22.9,7.8,22.9,7.9,22.7,8
			C22.8,8,22.8,8,22.7,8z"/>
	</g>
	<g class="st7">
		<path class="st3" d="M36.9,22.1C36.8,22.1,36.8,22.1,36.9,22.1L35,20.3c0,0,0-0.1,0-0.2s0.1,0,0.2,0l1.8,1.8
			C37,22,37,22,36.9,22.1C36.9,22.1,36.9,22.1,36.9,22.1z"/>
	</g>
	<g class="st7">
		<path class="st3" d="M35.1,8C35,8,35,8,35.1,8c-0.1-0.1-0.1-0.2-0.1-0.2L36.8,6c0,0,0.1,0,0.2,0s0,0.1,0,0.2L35.1,8
			C35.1,8,35.1,8,35.1,8z"/>
	</g>
	<g class="st7">
		<path class="st3" d="M20.9,22.1C20.9,22.1,20.9,22.1,20.9,22.1c-0.1-0.1-0.1-0.2-0.1-0.2l1.8-1.8c0,0,0.1,0,0.2,0s0,0.1,0,0.2
			L20.9,22.1C21,22.1,21,22.1,20.9,22.1z"/>
	</g>
</g>
</svg>
